<?xml version="1.0" standalone="no"?><!DOCTYPE svg PUBLIC "-//W3C//DTD SVG 1.1//EN" "http://www.w3.org/Graphics/SVG/1.1/DTD/svg11.dtd"><svg xmlns:xlink="http://www.w3.org/1999/xlink" viewBox="0 0 48 48" version="1.1" xmlns="http://www.w3.org/2000/svg"><defs xmlns="http://www.w3.org/1999/xhtml"><style type="text/css"><![CDATA[]]></style></defs>
<g id="surface1">
<path style=" fill:#FF9100;" d="M 40 45 L 8 45 L 8 3 L 30 3 L 40 13 Z "/>
<path style=" fill:#FFE0B2;" d="M 38.5 14 L 29 14 L 29 4.5 Z "/>
<path style=" fill:#FFE0B2;" d="M 16.007813 29.363281 L 15.011719 29.363281 L 15.011719 33 L 13 33 L 13 23.046875 L 16.207031 23.046875 C 17.214844 23.046875 17.992188 23.308594 18.539063 23.828125 C 19.089844 24.351563 19.363281 25.09375 19.363281 26.054688 C 19.363281 27.375 18.882813 28.300781 17.921875 28.828125 L 19.664063 32.902344 L 19.664063 33 L 17.503906 33 Z M 15.011719 27.6875 L 16.152344 27.6875 C 16.554688 27.6875 16.855469 27.554688 17.054688 27.289063 C 17.253906 27.023438 17.355469 26.664063 17.355469 26.21875 C 17.355469 25.222656 16.964844 24.722656 16.1875 24.722656 L 15.011719 24.722656 Z "/>
<path style=" fill:#FFE0B2;" d="M 25.496094 30.964844 L 22.753906 30.964844 L 22.222656 33 L 20.097656 33 L 23.207031 23.046875 L 25.046875 23.046875 L 28.175781 33 L 26.03125 33 Z M 23.191406 29.289063 L 25.050781 29.289063 L 24.121094 25.738281 Z "/>
<path style=" fill:#FFE0B2;" d="M 32.007813 29.363281 L 31.011719 29.363281 L 31.011719 33 L 29 33 L 29 23.046875 L 32.207031 23.046875 C 33.214844 23.046875 33.992188 23.308594 34.539063 23.828125 C 35.089844 24.351563 35.363281 25.09375 35.363281 26.054688 C 35.363281 27.375 34.882813 28.300781 33.921875 28.828125 L 35.664063 32.902344 L 35.664063 33 L 33.503906 33 Z M 31.011719 27.6875 L 32.152344 27.6875 C 32.554688 27.6875 32.855469 27.554688 33.054688 27.289063 C 33.253906 27.023438 33.355469 26.664063 33.355469 26.21875 C 33.355469 25.222656 32.964844 24.722656 32.1875 24.722656 L 31.011719 24.722656 Z "/>
</g>
</svg>